USFL
nRows=226
nColumns=2
inDegrees=yes
endheader
time	tib_ant_r	
2.66129	 75.591809	
2.69456	 75.583286	
2.72782	 75.616871	
2.76109	 75.625851	
2.79435	 75.589579	
2.82762	 75.626693	
2.86089	 75.650563	
2.89415	 75.655717	
2.92742	 75.658933	
2.96069	 75.661796	
2.99395	 75.665728	
3.02722	 75.623057	
3.06048	 75.677846	
3.09375	 75.661654	
3.12702	 75.592869	
3.16028	 75.586850	
3.19355	 75.596939	
3.22681	 75.576590	
3.26008	 75.577301	
3.29335	 75.546688	
3.32661	 75.547775	
3.35988	 75.562845	
3.39315	 75.554567	
3.42641	 75.543097	
3.45968	 75.548485	
3.49294	 75.574830	
3.52621	 75.587407	
3.55948	 75.581615	
3.59274	 75.598213	
3.62601	 75.591198	
3.65927	 75.573094	
3.69254	 75.593003	
3.72581	 75.569159	
3.75907	 75.529395	
3.79234	 75.536364	
3.8256	 75.499029	
3.85887	 75.511063	
3.89214	 75.513830	
3.9254	 75.515987	
3.95867	 75.481852	
3.99194	 75.512645	
4.0252	 75.601834	
4.05847	 75.549602	
4.09173	 75.464104	
4.125	 75.535101	
4.15827	 75.475792	
4.19153	 75.528444	
4.2248	 75.485534	
4.25806	 75.497346	
4.29133	 75.492008	
4.3246	 75.492103	
4.35786	 75.512380	
4.39113	 75.520875	
4.4244	 75.537164	
4.45766	 75.572833	
4.49093	 75.883131	
4.52419	 76.105482	
4.55746	 76.587350	
4.59073	 70.968032	
4.62399	 70.883064	
4.65726	 69.888181	
4.69052	 69.417981	
4.72379	 68.925484	
4.75706	 68.994870	
4.79032	 68.736711	
4.82359	 66.026457	
4.85685	 65.979027	
4.89012	 66.236241	
4.92339	 66.368533	
4.95665	 66.530808	
4.98992	 66.399711	
5.02319	 66.345049	
5.05645	 63.627410	
5.08972	 63.643020	
5.12298	 63.693485	
5.15625	 63.598825	
5.18952	 63.685767	
5.22278	 63.989490	
5.25605	 64.326582	
5.28931	 64.522705	
5.32258	 64.577907	
5.35585	 64.751328	
5.38911	 64.744580	
5.42238	 64.612467	
5.45565	 64.475861	
5.48891	 64.539234	
5.52218	 64.626600	
5.55544	 64.507245	
5.58871	 64.508422	
5.62198	 64.569972	
5.65524	 64.581391	
5.68851	 64.404113	
5.72177	 64.610713	
5.75504	 64.654648	
5.78831	 64.599869	
5.82157	 64.528987	
5.85484	 64.410560	
5.8881	 64.609773	
5.92137	 64.572872	
5.95464	 64.556216	
5.9879	 64.587580	
6.02117	 64.671356	
6.05444	 64.695278	
6.0877	 64.723680	
6.12097	 64.678771	
6.15423	 64.736311	
6.1875	 64.771959	
6.22077	 64.804372	
6.25403	 64.889716	
6.2873	 64.864551	
6.32056	 64.875101	
6.35383	 64.851390	
6.3871	 64.927735	
6.42036	 64.926714	
6.45363	 64.808157	
6.4869	 64.840085	
6.52016	 64.795137	
6.55343	 64.760489	
6.58669	 64.819731	
6.61996	 64.792335	
6.65323	 64.806102	
6.68649	 64.792207	
6.71976	 64.897500	
6.75302	 64.965781	
6.78629	 64.981059	
6.81956	 65.069834	
6.85282	 64.873515	
6.88609	 64.732360	
6.91935	 64.662636	
6.95262	 64.855512	
6.98589	 64.970450	
7.01915	 64.835324	
7.05242	 64.867965	
7.08569	 64.909278	
7.11895	 64.836904	
7.15222	 64.769850	
7.18548	 64.762581	
7.21875	 64.822301	
7.25202	 64.830950	
7.28528	 64.736541	
7.31855	 64.728917	
7.35181	 64.764991	
7.38508	 64.725384	
7.41835	 64.803995	
7.45161	 64.826399	
7.48488	 64.671056	
7.51815	 64.633024	
7.55141	 64.448801	
7.58468	 64.589197	
7.61794	 64.626093	
7.65121	 64.661898	
7.68448	 64.607791	
7.71774	 64.727203	
7.75101	 64.617511	
7.78427	 64.634777	
7.81754	 64.657367	
7.85081	 64.635977	
7.88407	 64.615505	
7.91734	 64.650655	
7.9506	 64.574250	
7.98387	 64.446931	
8.01714	 64.532072	
8.0504	 64.556143	
8.08367	 64.595899	
8.11694	 64.544790	
8.1502	 64.540667	
8.18347	 64.464741	
8.21673	 64.455364	
8.25	 64.508880	
8.28327	 64.529165	
8.31653	 64.508934	
8.3498	 64.453593	
8.38306	 64.450479	
8.41633	 64.372236	
8.4496	 64.211626	
8.48286	 64.114769	
8.51613	 64.133586	
8.5494	 64.214389	
8.58266	 64.147136	
8.61593	 64.168490	
8.64919	 64.244324	
8.68246	 64.221046	
8.71573	 64.131390	
8.74899	 64.220966	
8.78226	 64.389054	
8.81552	 64.427907	
8.84879	 64.311492	
8.88206	 64.281917	
8.91532	 64.375640	
8.94859	 64.300797	
8.98185	 64.305344	
9.01512	 64.408781	
9.04839	 64.443353	
9.08165	 64.387936	
9.11492	 64.530060	
9.14819	 64.162099	
9.18145	 77.549582	
9.21472	 76.490975	
9.24798	 75.634111	
9.28125	 87.992425	
9.31452	 88.247394	
9.34778	 89.199237	
9.38105	 88.905330	
9.41431	 88.539195	
9.44758	 88.634056	
9.48085	 88.714382	
9.51411	 88.687923	
9.54738	 88.542780	
9.58065	 88.507720	
9.61391	 88.463162	
9.64718	 88.565399	
9.68044	 88.635451	
9.71371	 88.515062	
9.74698	 88.325472	
9.78024	 88.478057	
9.81351	 88.563055	
9.84677	 88.904092	
9.88004	 88.926261	
9.91331	 88.949381	
9.94657	 88.900822	
9.97984	 89.039803	
10.0131	 89.155769	
10.0464	 89.238957	
10.0796	 89.332248	
10.1129	 89.319418	
10.1462	 89.206111	
